#Produced by Art of Illusion 3.0.1, Sat Jun 06 13:19:20 CEST 2015
g Metalion
v 9.18089 2.47919 -1.16236
v 7.5331 2.36322 -0.38746
v 8.18089 2.58887 -1.72971
v 9.07143 2.74918 -1.47778
v 8.44483 2.73947 -1.72971
v 8.08386 2.55315 -0.98425
v 11.18089 2.58887 -1.72971
v 7.7537 2.46934 -0.64665
v 8.0373 3.25341 -1.72971
v 10.55089 2.70887 -1.72971
v 9.12529 2.62662 -1.30587
v 9.09166 2.97888 -1.72971
v 9.94057 2.89935 -1.72971
v 9.18089 2.47919 -2.29705
v 7.5331 2.36322 -3.07195
v 9.07143 2.74918 -1.98163
v 8.08386 2.55315 -2.47516
v 7.7537 2.46934 -2.81276
v 9.12529 2.62662 -2.15354
vn -0.01106 -0.98521 -0.17097
vn 0.19349 0.7272 0.65859
vn 0 -0.98182 -0.18981
vn -0.1069 0.9505 0.29176
vn -0.01106 -0.98521 -0.17097
vn -0.01106 -0.98521 -0.17097
vn -0.49345 0.86481 -0.09276
vn -0.49345 0.86481 0.09276
vn -0.01106 -0.98521 0.17097
vn 0 -0.98182 0.18981
vn 0 -0.98182 -0.18981
vn 0.06497 0.77543 0.62808
vn -0.4332 0.59768 -0.67462
vn -0.4332 0.59768 0.67462
vn -0.00116 0.96785 0.25151
vn 0 -0.98182 -0.18981
vn 0 -0.98182 0.18981
vn 0.1426 0.74866 -0.64743
vn 0.1426 0.74866 0.64743
vn -0.23745 0.95513 0.17706
vn -0.18432 0.10996 0.9767
vn -0.18432 0.10996 -0.9767
vn 0.14444 0.73034 -0.66764
vn 0.14444 0.73034 0.66764
vn 0.15061 0.78388 0.60237
vn 0.13027 0.72742 0.67371
vn 0.13027 0.72742 -0.67371
vn 0.14743 0.53852 0.82962
vn 0.14743 0.53852 -0.82962
vn -0.01106 -0.98521 0.17097
vn 0.19349 0.7272 -0.65859
vn 0 -0.98182 0.18981
vn -0.01106 -0.98521 0.17097
vn -0.1069 0.9505 -0.29176
vn 0.06497 0.77543 -0.62808
vn -0.00116 0.96785 -0.25151
vn -0.23745 0.95513 -0.17706
vn 0.15061 0.78388 -0.60237
f 1//1 2//5 3//6
f 4//12 5//14 6//15
f 7//16 1//3 3//11
f 6//15 5//14 8//20
f 4//12 9//21 5//14
f 10//24 1//2 7//19
f 10//24 11//25 1//2
f 12//26 9//21 4//12
f 4//12 13//28 12//26
f 2//4 1//2 8//20
f 8//20 1//2 11//25
f 3//7 2//4 5//14
f 5//14 2//4 8//20
f 11//25 10//24 4//12
f 4//12 10//24 13//28
f 8//20 11//25 6//15
f 6//15 11//25 4//12
f 14//30 3//9 15//33
f 16//35 17//36 5//13
f 7//17 3//10 14//32
f 17//36 18//37 5//13
f 16//35 5//13 9//22
f 10//23 7//18 14//31
f 10//23 14//31 19//38
f 12//27 16//35 9//22
f 16//35 12//27 13//29
f 15//34 18//37 14//31
f 18//37 19//38 14//31
f 3//8 5//13 15//34
f 5//13 18//37 15//34
f 19//38 16//35 10//23
f 16//35 13//29 10//23
f 18//37 17//36 19//38
f 17//36 16//35 19//38
